<?xml version="1.0" encoding="iso-8859-1"?>
<!-- Uploaded to: SVG Repo, www.svgrepo.com, Generator: SVG Repo Mixer Tools -->
<svg fill="#000000" height="800px" width="800px" version="1.1" id="Layer_1" xmlns="http://www.w3.org/2000/svg" xmlns:xlink="http://www.w3.org/1999/xlink" 
	 viewBox="0 0 512 512" xml:space="preserve">
<g>
	<g>
		<path d="M490.667,309.333h-4.203l-10.475-47.467c-3.669-18.923-19.648-33.301-39.552-36.928L292.416,80.917
			c-6.101-6.101-15.275-7.915-23.253-4.629C261.184,79.595,256,87.381,256,96v85.333c0,11.776,9.536,21.333,21.333,21.333
			s21.333-9.557,21.333-21.333v-33.835l91.264,91.264c-6.272,6.187-10.795,13.888-12.501,22.592l-10.581,47.979h-25.515v-42.667
			c0-11.776-9.536-21.333-21.333-21.333h-85.333c-11.797,0-21.333,9.557-21.333,21.333v42.667h-64V202.667h-128v106.667
			C9.536,309.333,0,318.891,0,330.667v106.389c0,35.435,28.843,64.277,64.277,64.277h362.389c10.432,0,19.328-7.552,21.035-17.813
			c4.011-24.043,11.605-40.917,23.851-53.099c1.941-1.899,9.579-8.491,11.904-10.219c7.061-5.035,28.544-20.331,28.544-46.869
			v-42.667C512,318.891,502.464,309.333,490.667,309.333z M410.539,309.334L410.539,309.334l8.661-39.318
			c0.171-0.811,2.709-3.349,7.467-3.349s7.296,2.539,7.552,3.883l8.576,38.784H410.539z"/>
	</g>
</g>
<g>
	<g>
		<path d="M149.333,96c0-11.776-9.536-21.333-21.333-21.333h-21.333V32c0-11.776-9.536-21.333-21.333-21.333
			C73.536,10.667,64,20.224,64,32v42.667H42.667c-11.797,0-21.333,9.557-21.333,21.333v64h128L149.333,96L149.333,96z"/>
	</g>
</g>
</svg>